HIERARCHY
ROOT pelvis
{
  OFFSET 0 100 0
  CHANNELS 6 Xposition Yposition Zposition Zrotation Xrotation Yrotation
  JOINT pelvis_right_femur
  {
    OFFSET -10.78128 -3.44521 -0.5502486
    CHANNELS 3 Zrotation Xrotation Yrotation
    JOINT right_femur_tibia
    {
      OFFSET -0.8047443 -44.0398 -0.1307829
      CHANNELS 3 Zrotation Xrotation Yrotation
      JOINT right_tibia_foot
      {
        OFFSET 3.006224 -47.83518 -5
        CHANNELS 3 Zrotation Xrotation Yrotation
        End Site
        {
          OFFSET 0 -5 15
        }
      }
    }
  }
  JOINT pelvis_left_femur
  {
    OFFSET 10.78128 -3.44521 -0.5502486
    CHANNELS 3 Zrotation Xrotation Yrotation
    JOINT left_femur_tibia
    {
      OFFSET 0.8047443 -44.0398 -0.1307829
      CHANNELS 3 Zrotation Xrotation Yrotation
      JOINT left_tibia_foot
      {
        OFFSET -4.370144 -48.10324 -4.275266
        CHANNELS 3 Zrotation Xrotation Yrotation
        End Site
        {
          OFFSET 0 -5 15
        }
      }
    }
  }
  JOINT pelvis_spine1
  {
    OFFSET 0 6.468898 -3.129235
    CHANNELS 3 Zrotation Xrotation Yrotation
    JOINT spine1
    {
      OFFSET 0 23.15396 4.99043
      CHANNELS 3 Zrotation Xrotation Yrotation
      JOINT spine2
      {
        OFFSET 0 20.79997 -5.064912
        CHANNELS 3 Zrotation Xrotation Yrotation
        JOINT neck
        {
          OFFSET 0 14.38658 9.616178
          CHANNELS 3 Zrotation Xrotation Yrotation
          End Site
          {
            OFFSET 0 20 0
          }
        }
      }
      JOINT right_manubrium
      {
        OFFSET -5.722621 16.35077 3.967754
        CHANNELS 3 Zrotation Xrotation Yrotation
        JOINT right_clavicle
        {
          OFFSET -13.16364 1.694482 -4.693211
          CHANNELS 3 Zrotation Xrotation Yrotation
          JOINT right_humerus
          {
            OFFSET -28.5034 -0.3100689 -2.792744
            CHANNELS 3 Zrotation Xrotation Yrotation
            JOINT right_radius
            {
              OFFSET -25.15693 0.02248979 -1.271978
              CHANNELS 3 Zrotation Xrotation Yrotation
              End Site
              {
                OFFSET -15 0 0
              }
            }
          }
        }
      }
      JOINT left_manubrium
      {
        OFFSET 5.722621 16.35077 3.967754
        CHANNELS 3 Zrotation Xrotation Yrotation
        JOINT left_clavicle
        {
          OFFSET 13.16364 1.694482 -4.693211
          CHANNELS 3 Zrotation Xrotation Yrotation
          JOINT left_humerus
          {
            OFFSET 29.39168 -1.063119 -2.237045
            CHANNELS 3 Zrotation Xrotation Yrotation
            JOINT left_radius
            {
              OFFSET 24.59957 -0.9528479 0.9047498
              CHANNELS 3 Zrotation Xrotation Yrotation
              End Site
              {
                OFFSET 15 -0 -0
              }
            }
          }
        }
      }
    }
  }
}
MOTION
Frames: 15
Frame Time: 0.0416666666667
0 103.5113 0 1.498464 -2.815447 0.07411048 1.559059 -10.93176 7.317927 -0 39.32944 -0 -5.544695 -16.95792 -4.490431 -6.65934 11.9986 -23.16595 -0 5.56518 -0 0.3211186 -18.34801 22.89352 -1.645909 -3.054727 4.7949 -0.7485506 7.630619 -6.749741 1.474675 22.40594 9.244431 6.255112 -21.82661 9.517485 6.163636 -18.84483 10.22382 88.37662 35.43621 -23.48176 -0 0 18.18026 -7.552215 6.965524 2.416933 7.677311 -21.07856 -2.922739 -101.3347 42.71108 28.62223 0 0 -24.62945 -9.413636 17.24128 26.65343
0.1420355 103.7144 1.227194 0.6845233 -2.4821 -0.06149733 2.825598 -13.61958 8.433124 -0 40.80809 -0 -5.450748 -16.1795 -5.41101 -6.033922 12.29769 -23.38557 -0 6.342046 -0 -1.273251 -20.07614 23.04704 -1.563561 -3.014252 4.89236 -0.8213978 7.67669 -6.709474 1.495907 22.35702 9.249027 6.305887 -21.77342 9.493458 6.168036 -18.85704 10.2122 88.37237 35.63931 -23.44029 -0 0 18.15615 -7.606138 7.100244 2.402509 7.761405 -21.20369 -2.844759 -101.3096 42.64024 28.63198 0 0 -24.81639 -9.189062 17.25953 26.56662
0.3053979 103.728 2.75695 0.09666145 -1.426228 -0.1673934 3.930203 -18.99992 7.785416 -0 37.31195 -0 -5.990534 -14.10727 -4.850937 -5.765157 12.54508 -22.64434 -0 6.054397 -0 -0.2233974 -21.66986 22.61027 -1.350789 -2.382874 4.439416 -0.1317833 7.559451 -7.04879 1.427625 22.23605 8.801087 5.849311 -22.2114 9.103753 6.060966 -18.41929 10.34083 88.48435 36.03921 -23.46391 -0 0 16.81087 -7.795376 7.934549 3.0054 7.187535 -21.08902 -2.832054 -99.66214 41.57496 27.20894 0 0 -25.09404 -8.716076 17.01718 26.32503
0.4656792 103.6181 4.518781 -0.3760191 -0.6603884 -0.2311897 4.812333 -22.64541 7.691195 -0 35.12913 -0 -6.222914 -12.60168 -4.700195 -5.491782 12.77981 -22.31613 -0 6.172962 -0 -0.2374407 -23.04013 22.20387 -1.196068 -2.033621 4.140826 0.2674208 7.50467 -7.283305 1.387882 22.12753 8.56656 5.598119 -22.45672 8.897213 6.004259 -18.13599 10.39391 88.70488 36.26085 -23.68884 -0 0 15.97609 -7.844091 8.459386 3.294131 6.90648 -21.09574 -2.845583 -98.65507 40.94447 26.29145 0 0 -25.42645 -8.43021 16.85796 26.19529
0.6218888 103.3542 6.586666 -0.7269542 0.1824397 -0.2236104 5.476332 -26.13361 7.323293 -0 32.10525 -0 -6.448151 -10.95149 -4.354389 -5.296859 13.03741 -21.79591 -0 6.257563 -0 -0.2081903 -24.17747 21.48189 -1.067633 -1.673966 3.769225 0.7373174 7.434285 -7.560245 1.33212 22.03075 8.310712 5.297802 -22.73643 8.67783 5.942735 -17.81157 10.46274 88.95018 36.40658 -23.95515 -0 0 15.05121 -7.927817 9.002521 3.640159 6.561347 -21.05686 -2.900127 -97.54004 40.23085 25.24747 0 0 -25.69608 -8.191529 16.66844 26.04904
0.7667474 102.9242 9.018894 -1.016379 1.051527 -0.1214427 5.991939 -29.33728 6.845093 -0 28.68326 -0 -6.631914 -9.222406 -3.973007 -5.113021 13.3581 -21.17199 -0 6.494263 -0 -0.486098 -25.13674 20.43383 -0.9749341 -1.365699 3.426892 1.165394 7.375245 -7.811035 1.276508 21.95602 8.084719 5.019911 -22.97933 8.482126 5.890012 -17.51572 10.53348 89.15495 36.49589 -24.17958 -0 0 14.21891 -8.05952 9.489473 3.980902 6.238277 -21.00613 -2.964616 -96.53608 39.55058 24.29165 0 0 -25.87726 -7.988455 16.49021 25.88473
0.8916595 102.3203 11.90987 -1.244471 1.979245 0.1046868 6.341953 -32.26552 6.202595 -0 24.70493 -0 -6.757669 -7.347432 -3.54111 -4.94068 13.79357 -20.33915 -0 7.008125 -0 -1.044399 -25.76955 18.9723 -0.9129578 -1.078605 3.101708 1.580804 7.326323 -8.044927 1.218068 21.90135 7.86585 4.742692 -23.20003 8.288392 5.842095 -17.23141 10.61683 89.29843 36.54896 -24.32915 -0 0 13.42292 -8.277082 9.962994 4.361648 5.906522 -20.93296 -3.035478 -95.56794 38.83788 23.36236 0 0 -25.95691 -7.787546 16.31027 25.67294
0.9837936 101.5642 15.36719 -1.444458 2.905666 0.4765483 6.563916 -34.64837 5.46732 -0 20.48577 -0 -6.818279 -5.400458 -3.137581 -4.739025 14.39063 -19.28709 -0 8.117371 -0 -2.051809 -25.85935 17.04997 -0.8743789 -0.8161354 2.826751 1.955177 7.299922 -8.243533 1.161827 21.86341 7.661479 4.48273 -23.37825 8.098323 5.799691 -16.97445 10.71001 89.36138 36.59807 -24.37115 -0 0 12.69332 -8.607105 10.43518 4.779753 5.588076 -20.85666 -3.095798 -94.66545 38.09485 22.49833 0 0 -25.94321 -7.55475 16.13667 25.39832
1.027564 100.7355 19.49386 -1.67062 3.693943 0.9936245 6.753043 -36.01346 4.769949 -0 16.68137 -0 -6.852804 -3.604835 -2.851833 -4.44986 15.14456 -18.03678 -0 10.32657 -0 -3.621575 -25.03077 14.71272 -0.8556765 -0.5780607 2.625797 2.271066 7.305777 -8.39365 1.110669 21.84115 7.473505 4.247877 -23.49931 7.910398 5.761537 -16.75656 10.81294 89.32296 36.66584 -24.27048 -0 0 12.05002 -9.084436 10.92168 5.244473 5.292654 -20.78663 -3.133503 -93.84106 37.31193 21.72284 0 0 -25.82988 -7.264546 15.97274 25.04621
1.012704 99.99947 24.33181 -2.007716 4.115062 1.606878 7.082956 -35.75764 4.301921 -0 14.37635 -0 -7.007099 -2.432015 -2.745394 -3.999311 15.87193 -16.72582 -0 14.2718 -0 -5.713051 -22.86819 12.22365 -0.8546239 -0.3697733 2.531625 2.501101 7.354976 -8.475586 1.068852 21.83514 7.30746 4.050758 -23.54287 7.726926 5.725808 -16.59836 10.92372 89.15552 36.77377 -23.98169 -0 0 11.53516 -9.746398 11.43112 5.760307 5.035647 -20.73166 -3.134085 -93.12818 36.49359 21.08371 0 0 -25.60324 -6.89747 15.82566 24.60922
0.9524839 99.59635 29.79442 -2.507682 3.965254 2.19678 7.657285 -33.49497 4.130648 -0 14.45302 -0 -7.496975 -2.467176 -2.754902 -3.376576 16.07137 -15.56597 -0 20.40367 -0 -7.967061 -19.23016 10.05707 -0.8733686 -0.1974247 2.575121 2.620526 7.455232 -8.468317 1.040362 21.84912 7.166939 3.900641 -23.4915 7.550817 5.69025 -16.52378 11.04185 88.81996 36.93023 -23.44644 -0 0 11.20208 -10.62799 11.96105 6.33499 4.825903 -20.68796 -3.085619 -92.56634 35.65092 20.63833 0 0 -25.23073 -6.448693 15.70067 24.08809
0.8974207 99.74988 35.66195 -3.060258 3.248416 2.589531 8.292516 -29.43294 4.056385 -0 16.49428 -0 -8.330694 -3.91708 -2.749874 -2.755133 15.04183 -14.61883 -0 28.6106 -0 -9.801793 -14.61725 8.642462 -0.9151071 -0.06554208 2.777841 2.61251 7.607985 -8.354303 1.02872 21.88692 7.053028 3.802151 -23.33622 7.385787 5.652986 -16.55498 11.16715 88.27708 37.1273 -22.61059 -0 0 11.10563 -11.74367 12.49584 6.9727 4.665537 -20.64036 -2.981204 -92.194 34.80339 20.4433 0 0 -24.67594 -5.930331 15.59861 23.49662
0.9118068 100.5417 41.68805 -3.344567 2.131407 2.627029 8.578768 -24.24682 3.847943 -0 18.67547 -0 -9.077313 -6.181558 -2.758321 -2.454632 12.35395 -13.61337 -0 38.30449 -0 -10.71204 -10.06116 8.167662 -0.9797765 0.02689761 3.141688 2.476197 7.806564 -8.127446 1.036038 21.94835 6.963087 3.752709 -23.08214 7.235088 5.612992 -16.70328 11.2989 87.50656 37.34143 -21.44988 -0 0 11.28042 -13.07401 13.01307 7.669578 4.549092 -20.56781 -2.822061 -92.03082 33.97119 20.53127 0 0 -23.92004 -5.367987 15.51317 22.86111
1.019742 101.8581 47.68958 -3.033853 0.6988445 2.2513 8.204702 -18.54519 3.492953 -0 19.26332 -0 -9.262759 -8.254387 -2.885672 -2.630208 8.02441 -12.27825 -0 48.51906 -0 -10.52153 -6.583738 8.64363 -1.060514 0.08784069 3.651621 2.224315 8.040284 -7.79378 1.062941 22.02691 6.892159 3.744178 -22.74456 7.100673 5.569236 -16.96665 11.43516 86.51619 37.54617 -19.9776 -0 0 11.72976 -14.57997 13.50104 8.416186 4.46797 -20.4544 -2.614804 -92.06905 33.16124 20.90073 0 0 -22.97414 -4.784923 15.43249 22.20952
1.186772 103.4305 53.51629 -2.08563 -0.9517898 1.569988 7.182244 -12.67261 3.063136 -0 17.72356 -0 -8.848363 -9.573574 -2.967601 -3.078658 2.198991 -10.73831 -0 57.40632 -0 -9.497654 -4.739359 9.855878 -1.146524 0.1296654 4.290475 1.872456 8.300709 -7.362077 1.109475 22.11267 6.835311 3.766329 -22.33873 6.983647 5.519547 -17.33799 11.57425 85.32339 37.72035 -18.21564 -0 0 12.44132 -16.23704 13.96812 9.20952 4.413483 -20.29033 -2.3659 -92.28426 32.35773 21.53253 0 0 -21.8599 -4.190085 15.34134 21.55824
